<?xml version="1.0" standalone="no"?>
<!DOCTYPE svg PUBLIC "-//W3C//DTD SVG 20010904//EN"
 "http://www.w3.org/TR/2001/REC-SVG-20010904/DTD/svg10.dtd">
<svg version="1.0" xmlns="http://www.w3.org/2000/svg"
 width="128.000000pt" height="128.000000pt" viewBox="0 0 128.000000 128.000000"
 preserveAspectRatio="xMidYMid meet">
<metadata>
Created by potrace 1.11, written by Peter Selinger 2001-2013
</metadata>
<g transform="translate(0.000000,128.000000) scale(0.100000,-0.100000)"
fill="#000000" stroke="none">
<path d="M140 791 l0 -490 88 -26 c48 -14 121 -37 162 -50 103 -33 657 -201
700 -213 l35 -9 0 483 c0 308 -4 486 -10 492 -6 5 -89 33 -185 62 -423 127
-651 197 -724 221 -33 10 -61 19 -63 19 -1 0 -3 -220 -3 -489z m102 415 c24
-8 84 -26 133 -41 50 -14 124 -37 165 -50 41 -13 174 -54 295 -90 121 -37 227
-71 235 -75 13 -7 15 -66 14 -444 -1 -240 -3 -439 -6 -441 -4 -5 -160 41 -663
195 -93 29 -185 57 -202 62 l-33 9 0 444 c0 279 4 445 10 445 5 0 29 -6 52
-14z"/>
<path d="M330 726 c0 -157 2 -286 4 -286 2 0 11 -3 20 -6 13 -5 16 2 16 38 l0
44 253 -2 c138 -1 255 -2 260 -3 4 0 7 -55 7 -120 0 -99 3 -120 16 -125 9 -3
18 -6 20 -6 2 0 3 129 2 287 -3 265 -4 288 -20 291 -16 3 -18 -9 -18 -137 0
-106 -3 -141 -12 -142 -60 -4 -492 -3 -499 1 -5 3 -10 105 -11 225 -3 200 -5
220 -20 223 -17 3 -18 -16 -18 -282z"/>
<path d="M450 790 c0 -154 2 -182 15 -187 9 -3 19 -3 22 1 7 7 11 332 5 354
-2 6 -13 12 -23 12 -18 0 -19 -10 -19 -180z"/>
<path d="M762 744 c-1 -113 2 -136 15 -141 24 -10 28 8 27 137 -1 118 -6 139
-35 140 -3 0 -6 -61 -7 -136z"/>
<path d="M450 440 c0 -19 7 -33 20 -40 15 -8 20 -8 21 2 0 7 2 25 3 41 1 22
-2 27 -21 27 -19 0 -23 -5 -23 -30z"/>
<path d="M762 390 c1 -60 5 -81 16 -85 23 -9 25 0 26 85 1 76 0 80 -21 80 -21
0 -22 -4 -21 -80z"/>
</g>
</svg>
